<mxfile host="app.diagrams.net" modified="2024-06-22T11:26:18.735Z" agent="Mozilla/5.0 (Windows NT 10.0; Win64; x64) AppleWebKit/537.36 (KHTML, like Gecko) Chrome/126.0.0.0 Safari/537.36" etag="4MRdTH8e2OWEGCKDnMbc" version="24.6.1" type="github">
  <diagram name="第 1 页" id="6oX3LIHrZtGRjwuFJZbe">
    <mxGraphModel dx="1317" dy="977" grid="1" gridSize="10" guides="1" tooltips="1" connect="1" arrows="1" fold="1" page="1" pageScale="1" pageWidth="827" pageHeight="1169" math="0" shadow="0">
      <root>
        <mxCell id="0" />
        <mxCell id="1" parent="0" />
        <mxCell id="iKyLF_9llxhBo8YJS9ue-11" value="" style="swimlane;startSize=0;" parent="1" vertex="1">
          <mxGeometry x="70" y="40" width="510" height="760" as="geometry" />
        </mxCell>
        <mxCell id="iKyLF_9llxhBo8YJS9ue-14" value="前端" style="text;html=1;align=center;verticalAlign=middle;whiteSpace=wrap;rounded=0;" parent="iKyLF_9llxhBo8YJS9ue-11" vertex="1">
          <mxGeometry x="225" y="16" width="60" height="30" as="geometry" />
        </mxCell>
        <mxCell id="kvk4qasaE7F2tePxGAvt-3" value="" style="swimlane;startSize=0;" vertex="1" parent="iKyLF_9llxhBo8YJS9ue-11">
          <mxGeometry x="45" y="60" width="430" height="290" as="geometry" />
        </mxCell>
        <mxCell id="iKyLF_9llxhBo8YJS9ue-4" value="小程序" style="rounded=1;whiteSpace=wrap;html=1;" parent="kvk4qasaE7F2tePxGAvt-3" vertex="1">
          <mxGeometry x="60" y="48" width="310" height="60" as="geometry" />
        </mxCell>
        <mxCell id="iKyLF_9llxhBo8YJS9ue-15" value="公众号服务" style="rounded=1;whiteSpace=wrap;html=1;" parent="kvk4qasaE7F2tePxGAvt-3" vertex="1">
          <mxGeometry x="60" y="120" width="310" height="64" as="geometry" />
        </mxCell>
        <mxCell id="kvk4qasaE7F2tePxGAvt-2" value="网页" style="rounded=1;whiteSpace=wrap;html=1;" vertex="1" parent="kvk4qasaE7F2tePxGAvt-3">
          <mxGeometry x="50" y="200" width="310" height="64" as="geometry" />
        </mxCell>
        <mxCell id="kvk4qasaE7F2tePxGAvt-5" value="客户端" style="text;html=1;align=center;verticalAlign=middle;whiteSpace=wrap;rounded=0;" vertex="1" parent="kvk4qasaE7F2tePxGAvt-3">
          <mxGeometry x="175" y="10" width="60" height="30" as="geometry" />
        </mxCell>
        <mxCell id="kvk4qasaE7F2tePxGAvt-8" value="" style="swimlane;startSize=0;" vertex="1" parent="iKyLF_9llxhBo8YJS9ue-11">
          <mxGeometry x="45" y="370" width="430" height="370" as="geometry" />
        </mxCell>
        <mxCell id="kvk4qasaE7F2tePxGAvt-11" value="对话监控" style="rounded=1;whiteSpace=wrap;html=1;" vertex="1" parent="kvk4qasaE7F2tePxGAvt-8">
          <mxGeometry x="50" y="118" width="310" height="72" as="geometry" />
        </mxCell>
        <mxCell id="kvk4qasaE7F2tePxGAvt-12" value="后台管理" style="text;html=1;align=center;verticalAlign=middle;whiteSpace=wrap;rounded=0;" vertex="1" parent="kvk4qasaE7F2tePxGAvt-8">
          <mxGeometry x="175" y="10" width="60" height="30" as="geometry" />
        </mxCell>
        <mxCell id="kvk4qasaE7F2tePxGAvt-13" value="AI客服配置" style="rounded=1;whiteSpace=wrap;html=1;" vertex="1" parent="kvk4qasaE7F2tePxGAvt-8">
          <mxGeometry x="50" y="40" width="310" height="64" as="geometry" />
        </mxCell>
        <mxCell id="kvk4qasaE7F2tePxGAvt-14" value="人工介入" style="rounded=1;whiteSpace=wrap;html=1;" vertex="1" parent="kvk4qasaE7F2tePxGAvt-8">
          <mxGeometry x="50" y="200" width="310" height="64" as="geometry" />
        </mxCell>
        <mxCell id="kvk4qasaE7F2tePxGAvt-16" value="" style="edgeStyle=orthogonalEdgeStyle;rounded=0;orthogonalLoop=1;jettySize=auto;html=1;" edge="1" parent="kvk4qasaE7F2tePxGAvt-8" source="kvk4qasaE7F2tePxGAvt-15" target="kvk4qasaE7F2tePxGAvt-14">
          <mxGeometry relative="1" as="geometry" />
        </mxCell>
        <mxCell id="kvk4qasaE7F2tePxGAvt-15" value="日志记录" style="rounded=1;whiteSpace=wrap;html=1;" vertex="1" parent="kvk4qasaE7F2tePxGAvt-8">
          <mxGeometry x="50" y="280" width="310" height="70" as="geometry" />
        </mxCell>
      </root>
    </mxGraphModel>
  </diagram>
</mxfile>
